<svg id="Layer_1" data-name="Layer 1" xmlns="http://www.w3.org/2000/svg" viewBox="0 0 144 144"><defs><style>.cls-1{fill:#bcbec0;}.cls-2{fill:#fff;}</style></defs><path class="cls-1" d="M0,72A72,72,0,1,0,72,0,72,72,0,0,0,0,72Z"/><path class="cls-2" d="M72,52.64a3.88,3.88,0,1,1,3.87-3.88A3.88,3.88,0,0,1,72,52.64Z"/><path class="cls-2" d="M72,91.37a3.88,3.88,0,1,1-3.88,3.87A3.87,3.87,0,0,1,72,91.37Z"/><path class="cls-2" d="M79.41,54.11A3.88,3.88,0,1,1,84.47,52,3.88,3.88,0,0,1,79.41,54.11Z"/><path class="cls-2" d="M64.59,89.89A3.88,3.88,0,1,1,59.52,92,3.88,3.88,0,0,1,64.59,89.89Z"/><path class="cls-2" d="M85.69,58.31a3.88,3.88,0,1,1,5.49,0A3.89,3.89,0,0,1,85.69,58.31Z"/><path class="cls-2" d="M58.3,85.69a3.88,3.88,0,1,1-5.48,0A3.87,3.87,0,0,1,58.3,85.69Z"/><path class="cls-2" d="M89.89,64.59A3.88,3.88,0,1,1,95,66.69,3.88,3.88,0,0,1,89.89,64.59Z"/><path class="cls-2" d="M54.11,79.41A3.88,3.88,0,1,1,49,77.31,3.88,3.88,0,0,1,54.11,79.41Z"/><path class="cls-2" d="M91.36,72a3.88,3.88,0,1,1,3.88,3.88A3.88,3.88,0,0,1,91.36,72Z"/><path class="cls-2" d="M52.63,72a3.88,3.88,0,1,1-3.87-3.87A3.88,3.88,0,0,1,52.63,72Z"/><path class="cls-2" d="M89.89,79.41A3.88,3.88,0,1,1,92,84.48,3.87,3.87,0,0,1,89.89,79.41Z"/><path class="cls-2" d="M54.11,64.59A3.88,3.88,0,1,1,52,59.52,3.88,3.88,0,0,1,54.11,64.59Z"/><path class="cls-2" d="M85.69,85.69a3.88,3.88,0,1,1,0,5.49A3.89,3.89,0,0,1,85.69,85.69Z"/><path class="cls-2" d="M58.3,58.31a3.88,3.88,0,1,1,0-5.49A3.88,3.88,0,0,1,58.3,58.31Z"/><path class="cls-2" d="M79.41,89.89A3.88,3.88,0,1,1,77.31,95,3.87,3.87,0,0,1,79.41,89.89Z"/><path class="cls-2" d="M64.59,54.11A3.88,3.88,0,1,1,66.69,49,3.88,3.88,0,0,1,64.59,54.11Z"/><path class="cls-2" d="M72,44.3a5.54,5.54,0,1,1,5.55-5.53A5.53,5.53,0,0,1,72,44.3Z"/><path class="cls-2" d="M72,99.7a5.54,5.54,0,1,1-5.54,5.54A5.55,5.55,0,0,1,72,99.7Z"/><path class="cls-2" d="M82.6,46.41a5.54,5.54,0,1,1,7.24-3A5.54,5.54,0,0,1,82.6,46.41Z"/><path class="cls-2" d="M61.4,97.59a5.54,5.54,0,1,1-7.24,3A5.54,5.54,0,0,1,61.4,97.59Z"/><path class="cls-2" d="M91.58,52.42a5.54,5.54,0,1,1,7.84,0A5.55,5.55,0,0,1,91.58,52.42Z"/><path class="cls-2" d="M52.42,91.58a5.54,5.54,0,1,1-7.84,0A5.54,5.54,0,0,1,52.42,91.58Z"/><path class="cls-2" d="M97.59,61.4a5.54,5.54,0,1,1,7.24,3A5.53,5.53,0,0,1,97.59,61.4Z"/><path class="cls-2" d="M46.41,82.6a5.54,5.54,0,1,1-7.24-3A5.55,5.55,0,0,1,46.41,82.6Z"/><path class="cls-2" d="M99.69,72a5.55,5.55,0,1,1,5.55,5.55A5.55,5.55,0,0,1,99.69,72Z"/><path class="cls-2" d="M44.31,72a5.55,5.55,0,1,1-5.55-5.54A5.56,5.56,0,0,1,44.31,72Z"/><path class="cls-2" d="M97.59,82.6a5.54,5.54,0,1,1,3,7.25A5.54,5.54,0,0,1,97.59,82.6Z"/><path class="cls-2" d="M46.41,61.4a5.54,5.54,0,1,1-3-7.24A5.53,5.53,0,0,1,46.41,61.4Z"/><path class="cls-2" d="M91.58,91.58a5.54,5.54,0,1,1,0,7.84A5.53,5.53,0,0,1,91.58,91.58Z"/><path class="cls-2" d="M52.41,52.42a5.54,5.54,0,1,1,0-7.84A5.52,5.52,0,0,1,52.41,52.42Z"/><path class="cls-2" d="M82.6,97.59a5.54,5.54,0,1,1-3,7.24A5.53,5.53,0,0,1,82.6,97.59Z"/><path class="cls-2" d="M61.4,46.41a5.54,5.54,0,1,1,3-7.24A5.53,5.53,0,0,1,61.4,46.41Z"/><path class="cls-2" d="M72,31.81a5.62,5.62,0,1,1,5.62-5.62A5.62,5.62,0,0,1,72,31.81Z"/><path class="cls-2" d="M72,112.2a5.62,5.62,0,1,1-5.62,5.62A5.62,5.62,0,0,1,72,112.2Z"/><path class="cls-2" d="M87.38,34.86a5.62,5.62,0,1,1,7.34-3A5.61,5.61,0,0,1,87.38,34.86Z"/><path class="cls-2" d="M56.62,109.14a5.62,5.62,0,1,1-7.34,3A5.61,5.61,0,0,1,56.62,109.14Z"/><path class="cls-2" d="M100.42,43.58a5.62,5.62,0,1,1,8,0A5.63,5.63,0,0,1,100.42,43.58Z"/><path class="cls-2" d="M43.58,100.43a5.62,5.62,0,1,1-7.95,0A5.62,5.62,0,0,1,43.58,100.43Z"/><path class="cls-2" d="M109.14,56.62a5.62,5.62,0,1,1,7.34,3A5.61,5.61,0,0,1,109.14,56.62Z"/><path class="cls-2" d="M34.86,87.38a5.62,5.62,0,1,1-7.34-3A5.63,5.63,0,0,1,34.86,87.38Z"/><path class="cls-2" d="M112.2,72a5.62,5.62,0,1,1,5.61,5.62A5.62,5.62,0,0,1,112.2,72Z"/><path class="cls-2" d="M31.8,72a5.62,5.62,0,1,1-5.61-5.62A5.62,5.62,0,0,1,31.8,72Z"/><path class="cls-2" d="M109.14,87.38a5.62,5.62,0,1,1,3,7.34A5.63,5.63,0,0,1,109.14,87.38Z"/><path class="cls-2" d="M34.86,56.62a5.62,5.62,0,1,1-3-7.34A5.62,5.62,0,0,1,34.86,56.62Z"/><path class="cls-2" d="M100.42,100.43a5.62,5.62,0,1,1,0,7.94A5.62,5.62,0,0,1,100.42,100.43Z"/><path class="cls-2" d="M43.58,43.58a5.62,5.62,0,1,1,0-7.95A5.63,5.63,0,0,1,43.58,43.58Z"/><path class="cls-2" d="M87.38,109.14a5.62,5.62,0,1,1-3,7.34A5.62,5.62,0,0,1,87.38,109.14Z"/><path class="cls-2" d="M56.62,34.86a5.62,5.62,0,1,1,3-7.34A5.61,5.61,0,0,1,56.62,34.86Z"/><path class="cls-2" d="M72,19.71a5.81,5.81,0,1,1,5.8-5.8A5.8,5.8,0,0,1,72,19.71Z"/><path class="cls-2" d="M72,124.29a5.81,5.81,0,1,1-5.8,5.81A5.81,5.81,0,0,1,72,124.29Z"/><path class="cls-2" d="M92,23.69a5.8,5.8,0,1,1,7.58-3.14A5.8,5.8,0,0,1,92,23.69Z"/><path class="cls-2" d="M52,120.31a5.81,5.81,0,1,1-7.59,3.14A5.8,5.8,0,0,1,52,120.31Z"/><path class="cls-2" d="M109,35a5.8,5.8,0,1,1,8.2,0A5.8,5.8,0,0,1,109,35Z"/><path class="cls-2" d="M35,109a5.8,5.8,0,1,1-8.2,0A5.79,5.79,0,0,1,35,109Z"/><path class="cls-2" d="M120.31,52a5.81,5.81,0,1,1,7.58,3.14A5.8,5.8,0,0,1,120.31,52Z"/><path class="cls-2" d="M23.69,92a5.81,5.81,0,1,1-7.59-3.14A5.82,5.82,0,0,1,23.69,92Z"/><path class="cls-2" d="M124.29,72a5.81,5.81,0,1,1,5.8,5.81A5.8,5.8,0,0,1,124.29,72Z"/><path class="cls-2" d="M19.71,72a5.81,5.81,0,1,1-5.81-5.8A5.81,5.81,0,0,1,19.71,72Z"/><path class="cls-2" d="M120.31,92a5.81,5.81,0,1,1,3.14,7.58A5.8,5.8,0,0,1,120.31,92Z"/><path class="cls-2" d="M23.69,52a5.81,5.81,0,1,1-3.15-7.58A5.81,5.81,0,0,1,23.69,52Z"/><path class="cls-2" d="M109,109a5.8,5.8,0,1,1,0,8.2A5.79,5.79,0,0,1,109,109Z"/><path class="cls-2" d="M35,35a5.8,5.8,0,1,1,0-8.21A5.81,5.81,0,0,1,35,35Z"/><path class="cls-2" d="M92,120.31a5.81,5.81,0,1,1-3.14,7.58A5.8,5.8,0,0,1,92,120.31Z"/><path class="cls-2" d="M52,23.69a5.8,5.8,0,1,1,3.14-7.58A5.81,5.81,0,0,1,52,23.69Z"/><path class="cls-2" d="M67.87,72A4.13,4.13,0,1,0,72,67.87,4.13,4.13,0,0,0,67.87,72Z"/><path class="cls-2" d="M72,64.39a4.13,4.13,0,1,1,4.13-4.13A4.13,4.13,0,0,1,72,64.39Z"/><path class="cls-2" d="M72,79.61a4.14,4.14,0,1,1-4.13,4.13A4.13,4.13,0,0,1,72,79.61Z"/><path class="cls-2" d="M77.38,66.61a4.13,4.13,0,1,1,5.84,0A4.12,4.12,0,0,1,77.38,66.61Z"/><path class="cls-2" d="M66.62,77.39a4.13,4.13,0,1,1-5.84,0A4.13,4.13,0,0,1,66.62,77.39Z"/><path class="cls-2" d="M79.61,72a4.13,4.13,0,1,1,4.13,4.13A4.13,4.13,0,0,1,79.61,72Z"/><path class="cls-2" d="M64.39,72a4.14,4.14,0,1,1-4.13-4.13A4.14,4.14,0,0,1,64.39,72Z"/><path class="cls-2" d="M77.38,77.39a4.13,4.13,0,1,1,0,5.84A4.12,4.12,0,0,1,77.38,77.39Z"/><path class="cls-2" d="M66.62,66.61a4.13,4.13,0,1,1,0-5.83A4.12,4.12,0,0,1,66.62,66.61Z"/></svg>